#N canvas 1096 578 450 300 10;
#X obj 57 9 inlet;
#X obj 57 235 outlet;
#X msg 57 129 read -resize \$1 \$2;
#X obj 57 152 soundfiler;
#X obj 159 64 symbol \$2;
#X obj 57 32 t b b;
#X obj 57 64 symbol \$1;
#X obj 57 91 pack s s;
#X obj 57 181 sel 0;
#X msg 57 203 44100;
#X connect 0 0 5 0;
#X connect 2 0 3 0;
#X connect 3 0 8 0;
#X connect 4 0 7 1;
#X connect 5 0 6 0;
#X connect 5 1 4 0;
#X connect 6 0 7 0;
#X connect 7 0 2 0;
#X connect 8 0 9 0;
#X connect 8 1 1 0;
#X connect 9 0 1 0;
