#N canvas 634 267 738 738 10;
#X obj 239 20 inlet;
#X obj 230 101 bng 15 250 50 0 empty empty empty 17 7 0 10 -262144
-1 -1;
#X obj 56 21 loadbang;
#X obj 88 514 outlet~;
#X obj 165 518 outlet~;
#X obj 88 404 makefilename \$0-smp%d;
#X obj 61 215 random 4;
#X obj 61 237 + 1;
#X obj 46 133 t b f;
#X obj 191 364 f;
#X obj 232 363 f, f 2;
#X obj 263 366 f;
#X obj 303 366 f;
#X obj 344 367 f;
#X obj 188 19 bng 15 250 50 0 empty empty empty 17 7 0 10 -262144 -1
-1;
#X obj 258 213 loader \$1_4.wav \$0-smp4;
#X obj 503 27 inlet;
#X obj 47 108 loader \$1_1.wav \$0-smp1;
#X obj 126 153 loader \$1_2.wav \$0-smp2;
#X obj 191 180 loader \$1_3.wav \$0-smp3;
#X obj 442 219 loader \$1_5.wav \$0-smp5;
#X obj 88 454 sample-looper;
#X obj 60 261 t b f f;
#X obj 209 324 sel 1 2 3 4 5;
#X obj 56 50 t b b b b b b b;
#X msg 436 366 1;
#X msg 481 371 1;
#X obj 572 21 table \$0-smp1 44100;
#X obj 572 49 table \$0-smp2 44100;
#X obj 568 79 table \$0-smp3 44100;
#X obj 570 107 table \$0-smp4 44100;
#X obj 566 132 table \$0-smp5 44100;
#X obj 323 27 inlet;
#X connect 0 0 1 0;
#X connect 1 0 6 0;
#X connect 2 0 24 0;
#X connect 5 0 21 0;
#X connect 6 0 7 0;
#X connect 7 0 22 0;
#X connect 8 0 6 0;
#X connect 8 1 9 1;
#X connect 9 0 21 1;
#X connect 10 0 21 1;
#X connect 11 0 21 1;
#X connect 12 0 21 1;
#X connect 13 0 21 1;
#X connect 14 0 24 0;
#X connect 15 0 12 1;
#X connect 16 0 21 3;
#X connect 17 0 8 0;
#X connect 18 0 10 1;
#X connect 19 0 11 1;
#X connect 20 0 13 1;
#X connect 21 0 3 0;
#X connect 21 0 4 0;
#X connect 22 1 5 0;
#X connect 22 2 23 0;
#X connect 23 0 9 0;
#X connect 23 1 10 0;
#X connect 23 2 11 0;
#X connect 23 3 12 0;
#X connect 23 4 13 0;
#X connect 24 0 17 0;
#X connect 24 1 18 0;
#X connect 24 2 19 0;
#X connect 24 3 15 0;
#X connect 24 4 20 0;
#X connect 24 5 25 0;
#X connect 24 6 26 0;
#X connect 25 0 21 2;
#X connect 26 0 21 3;
#X connect 32 0 21 2;
