#N canvas 568 326 824 669 10;
#X obj 93 383 dac~ 1 2;
#X obj 116 28 r restart;
#X obj 204 63 bng 15 250 50 0 empty empty empty 17 7 0 10 -262144 -1
-1;
#N canvas 44 63 443 256 write-hanning 0;
#X msg 142 80 0;
#X obj 36 129 osc~;
#X obj 36 81 samplerate~;
#X obj 36 152 *~ -0.5;
#X obj 36 175 +~ 0.5;
#X obj 28 58 bng 15 250 50 0 empty empty empty 0 -6 0 8 -262144 -1
-1;
#X obj 28 26 loadbang;
#X obj 36 105 / 256;
#X obj 28 200 tabwrite~ hanning;
#X connect 0 0 1 1;
#X connect 1 0 3 0;
#X connect 2 0 7 0;
#X connect 3 0 4 0;
#X connect 4 0 8 0;
#X connect 5 0 2 0;
#X connect 5 0 0 0;
#X connect 5 0 8 0;
#X connect 6 0 5 0;
#X connect 7 0 1 0;
#X restore 709 40 pd write-hanning;
#X obj 710 17 table hanning 256;
#X obj 278 275 reader fx;
#X obj 15 277 reader drums;
#X obj 124 269 reader guitar;
#X obj 316 40 r speed;
#X obj 391 41 r pitch;
#X obj 301 111 hsl 128 15 0.1 10 1 0 empty empty empty -2 -8 0 10 -262144
-1 -1 6500 1;
#X obj 311 160 hsl 128 15 0.1 10 1 0 empty empty empty -2 -8 0 10 -262144
-1 -1 6400 1;
#X connect 1 0 5 0;
#X connect 1 0 6 0;
#X connect 1 0 7 0;
#X connect 2 0 5 0;
#X connect 2 0 6 0;
#X connect 2 0 7 0;
#X connect 5 0 0 0;
#X connect 5 1 0 1;
#X connect 6 0 0 0;
#X connect 6 1 0 1;
#X connect 7 0 0 0;
#X connect 7 1 0 1;
#X connect 8 0 5 1;
#X connect 8 0 7 1;
#X connect 8 0 6 1;
#X connect 9 0 6 2;
#X connect 9 0 7 2;
#X connect 9 0 5 2;
#X connect 10 0 5 1;
#X connect 10 0 7 1;
#X connect 10 0 6 1;
#X connect 11 0 5 2;
#X connect 11 0 7 2;
#X connect 11 0 6 2;
