#N canvas 286 73 903 629 10;
#X obj 257 586 outlet~;
#X obj 82 65 inlet;
#X obj 350 364 phasor~ 0;
#X obj 351 403 *~ 1;
#X obj 259 438 +~ 0;
#X text 298 439 offset;
#X obj 290 281 t b f;
#X obj 181 28 inlet;
#N canvas 87 126 448 424 phasor-freq-calc 0;
#X obj 42 37 inlet;
#X obj 137 35 inlet;
#X obj 42 336 outlet;
#X obj 107 334 outlet;
#X obj 187 35 inlet;
#X obj 234 36 inlet;
#X obj 42 161 t b f;
#X obj 42 214 /;
#X obj 42 244 f;
#X obj 42 132 t f f;
#X obj 42 270 spigot;
#X obj 42 298 * 1;
#X obj 42 187 samplerate~;
#X connect 0 0 9 0;
#X connect 1 0 8 0;
#X connect 4 0 10 1;
#X connect 5 0 11 1;
#X connect 6 0 12 0;
#X connect 6 1 7 1;
#X connect 7 0 8 0;
#X connect 8 0 10 0;
#X connect 9 0 6 0;
#X connect 9 1 3 0;
#X connect 10 0 11 0;
#X connect 11 0 2 0;
#X connect 12 0 7 0;
#X restore 204 325 pd phasor-freq-calc;
#N canvas 44 93 782 626 read-table 1;
#X obj 89 83 / 256;
#X obj 89 56 * 44100;
#X obj 15 30 inlet~;
#X obj 89 28 inlet;
#X obj 233 429 outlet~;
#X obj 89 117 phasor~;
#X obj 16 196 samphold~;
#X obj 98 198 *~ 256;
#X obj 17 232 +~;
#X obj 43 288 *~;
#X obj 374 152 +~ 0.5;
#X obj 374 181 wrap~;
#X obj 302 211 samphold~;
#X obj 384 213 *~ 256;
#X obj 303 247 +~;
#X obj 329 303 *~;
#X obj 234 395 +~;
#X obj 128 -4 loadbang;
#X obj 128 22 samplerate~;
#X obj 149 260 tabread4~ hanning;
#X obj 435 275 tabread4~ hanning;
#X obj 304 273 tabread4~;
#X obj 18 258 tabread4~;
#X obj 361 28 inlet;
#X msg 361 50 set \$1;
#X connect 0 0 5 0;
#X connect 1 0 0 0;
#X connect 2 0 6 0;
#X connect 2 0 12 0;
#X connect 3 0 1 0;
#X connect 5 0 6 1;
#X connect 5 0 7 0;
#X connect 5 0 10 0;
#X connect 6 0 8 0;
#X connect 7 0 8 1;
#X connect 7 0 19 0;
#X connect 8 0 22 0;
#X connect 9 0 16 0;
#X connect 10 0 11 0;
#X connect 11 0 13 0;
#X connect 11 0 12 1;
#X connect 12 0 14 0;
#X connect 13 0 14 1;
#X connect 13 0 20 0;
#X connect 14 0 21 0;
#X connect 15 0 16 1;
#X connect 16 0 4 0;
#X connect 17 0 18 0;
#X connect 18 0 1 1;
#X connect 19 0 9 1;
#X connect 20 0 15 1;
#X connect 21 0 15 0;
#X connect 22 0 9 0;
#X connect 23 0 24 0;
#X connect 24 0 22 0;
#X connect 24 0 21 0;
#X restore 258 489 pd read-table;
#X obj 327 33 inlet;
#X obj 428 28 inlet;
#X msg 255 209 1;
#X connect 1 0 9 2;
#X connect 1 0 12 0;
#X connect 2 0 3 0;
#X connect 3 0 4 0;
#X connect 4 0 9 0;
#X connect 6 0 8 1;
#X connect 6 1 8 3;
#X connect 7 0 8 0;
#X connect 8 0 2 0;
#X connect 8 1 3 1;
#X connect 9 0 0 0;
#X connect 10 0 6 0;
#X connect 11 0 9 1;
#X connect 12 0 8 2;
#X coords 0 629 1 628 191 175 0;
